<svg width="316" height="75" viewBox="0 0 316 75" fill="none" xmlns="http://www.w3.org/2000/svg">
<g clip-path="url(#clip0_9_150)">
<path fill-rule="evenodd" clip-rule="evenodd" d="M31.4908 0H9.13859L20.3147 11.1758L31.4908 0ZM0 41.8599V71.0395L23.7416 72.8349C26.824 73.0686 29.6616 71.8238 31.5591 69.6853C31.6044 69.6225 31.6504 69.56 31.7011 69.5003C32.7569 68.2546 33.463 66.7739 33.7713 65.1813C33.7795 65.1394 33.7872 65.0975 33.7948 65.0552C33.8326 64.8455 33.865 64.635 33.8889 64.4218C33.8891 64.4212 33.8891 64.4206 33.8891 64.42V64.4199L35.3055 51.6694C31.9106 51.2825 28.7524 49.7453 26.352 47.3596L18.1385 55.5735L18.1372 55.5748L11.7386 61.9735C10.5161 63.1953 8.53547 63.1953 7.31322 61.9735C6.09141 60.7512 6.09141 58.77 7.31322 57.5481L11.5007 53.3606L0 41.8599ZM40.861 75H66.5108L53.6862 62.1748L40.861 75ZM75 32.2762L62.6058 19.8817L68.3103 14.1772C69.5322 12.9553 69.5322 10.9741 68.3103 9.75226C67.0885 8.53045 65.1079 8.53045 63.885 9.75226L56.6433 16.994C56.3573 17.1411 56.0927 17.3306 55.8611 17.5622L47.537 25.8863C45.1499 23.5609 42.0361 22.0621 38.6915 21.6812L39.9932 9.96001L40.1077 8.93005C40.1316 8.71607 40.1644 8.50423 40.2022 8.2939C40.2098 8.25222 40.2173 8.21097 40.2254 8.16972C40.5337 6.57623 41.2401 5.09489 42.2961 3.84923C42.3496 3.78628 42.3981 3.72054 42.4456 3.65459C44.3425 1.52184 47.176 0.281337 50.2552 0.514656L75 2.38669V32.2762ZM9.25347 33.5654L22.0061 34.9825C22.3926 31.5872 23.9298 28.4281 26.3165 26.0279L18.1024 17.814C18.1018 17.8135 18.1013 17.8129 18.1008 17.8123L18.0998 17.8112L2.44832 2.16014L0.839149 23.4178C0.6054 26.504 1.85493 29.3466 4.00056 31.2449C4.05943 31.2877 4.11787 31.3306 4.17415 31.3781C5.41938 32.4337 6.9003 33.1394 8.49271 33.4477C8.53439 33.4557 8.57607 33.4634 8.61796 33.4709C8.8283 33.5087 9.0397 33.5416 9.25347 33.5654ZM71.5517 71.1905L73.1591 49.9309C73.5465 44.8086 69.851 40.3515 64.7448 39.7845L51.995 38.3668C51.6089 41.7623 50.0717 44.922 47.6854 47.3231L55.8993 55.5372L55.8999 55.5379L71.5517 71.1905ZM45.0276 32.7793C44.8873 32.6221 44.7601 32.4523 44.6527 32.2667C43.076 29.538 40.1438 27.8427 37.0011 27.8429C36.5531 27.8429 36.1026 27.877 35.6626 27.9436C35.6611 27.9439 35.6596 27.944 35.6582 27.9441L35.6559 27.9443L35.6519 27.9452C34.5755 28.1097 33.5471 28.4724 32.5942 29.0224L32.5929 29.0232C29.8636 30.6002 28.168 33.5324 28.168 36.6757C28.168 37.1228 28.2018 37.5736 28.2688 38.0151C28.4331 39.0949 28.796 40.1272 29.3479 41.083L29.3482 41.0837C30.9249 43.813 33.8571 45.5083 37.0006 45.5083C37.4471 45.5083 37.897 45.4744 38.3376 45.4078H38.3383C39.4185 45.2441 40.4517 44.8808 41.4088 44.328L41.409 44.3278C44.1379 42.7506 45.8333 39.8187 45.8333 36.6755C45.8333 36.2274 45.7995 35.7762 45.7325 35.3347C45.7125 35.2017 45.7033 35.0685 45.7001 34.9355C45.5705 34.1896 45.3445 33.4681 45.0276 32.7793Z" fill="#6D9886"/>
<path d="M16 49L6.5 39.5L22.5 41.5L23 42L16 49Z" fill="#B8CDC5"/>
<path d="M25 15.5L34.5 6L32.5 22L32 22.5L25 15.5Z" fill="#B8CDC5"/>
<path d="M58.1608 24.285L67.6608 33.785L51.6608 31.785L51.1608 31.285L58.1608 24.285Z" fill="#B8CDC5"/>
<path d="M49.5 58L40 67.5L42 51.5L42.5 51L49.5 58Z" fill="#B8CDC5"/>
</g>
<path d="M86.82 55.624C86.82 56.2067 86.8047 56.7587 86.774 57.28C86.7433 57.832 86.636 58.3227 86.452 58.752C86.2987 59.1813 86.0533 59.5187 85.716 59.764C85.4093 60.04 84.9647 60.178 84.382 60.178C83.7073 60.178 83.14 59.9327 82.68 59.442C82.2507 58.982 82.0053 58.154 81.944 56.958C81.9133 56.1913 81.8673 55.256 81.806 54.152C81.7447 53.048 81.6833 51.8827 81.622 50.656C81.5913 49.4293 81.5453 48.2027 81.484 46.976C81.4533 45.7493 81.438 44.6147 81.438 43.572C81.438 39.984 81.6833 37.0247 82.174 34.694C82.6953 32.3633 83.462 30.508 84.474 29.128C85.486 27.748 86.728 26.782 88.2 26.23C89.7027 25.678 91.4353 25.402 93.398 25.402C94.962 25.402 96.434 25.6473 97.814 26.138C99.194 26.598 100.39 27.334 101.402 28.346C102.445 29.3273 103.273 30.6153 103.886 32.21C104.499 33.774 104.806 35.66 104.806 37.868C104.806 39.708 104.484 41.3333 103.84 42.744C103.227 44.1547 102.368 45.3507 101.264 46.332C100.16 47.2827 98.8567 48.0187 97.354 48.54C95.882 49.0307 94.3027 49.276 92.616 49.276C91.1747 49.276 89.8713 48.9847 88.706 48.402C87.5713 47.7887 86.7587 47.1293 86.268 46.424C86.4213 48.1413 86.544 49.736 86.636 51.208C86.7587 52.68 86.82 54.152 86.82 55.624ZM93.168 30.002C92.0947 30.002 91.1593 30.186 90.362 30.554C89.5953 30.922 88.9667 31.428 88.476 32.072C87.9853 32.716 87.6173 33.4827 87.372 34.372C87.1573 35.2613 87.05 36.2273 87.05 37.27C87.05 38.282 87.142 39.248 87.326 40.168C87.5407 41.0573 87.878 41.8393 88.338 42.514C88.798 43.1887 89.4113 43.7253 90.178 44.124C90.9447 44.5227 91.88 44.722 92.984 44.722C93.8427 44.722 94.6707 44.6147 95.468 44.4C96.2653 44.1547 96.9707 43.756 97.584 43.204C98.228 42.652 98.734 41.916 99.102 40.996C99.5007 40.076 99.7 38.926 99.7 37.546C99.7 36.1353 99.5007 34.9547 99.102 34.004C98.734 33.0227 98.228 32.2407 97.584 31.658C96.9707 31.0447 96.2653 30.6153 95.468 30.37C94.7013 30.1247 93.9347 30.002 93.168 30.002ZM108.296 46.148C108.235 45.0133 108.173 43.7253 108.112 42.284C108.081 40.812 108.066 39.202 108.066 37.454C108.066 35.2767 108.081 33.4213 108.112 31.888C108.143 30.324 108.219 29.0513 108.342 28.07C108.495 27.058 108.725 26.322 109.032 25.862C109.339 25.3713 109.768 25.126 110.32 25.126C110.841 25.126 111.301 25.31 111.7 25.678C112.099 26.046 112.329 26.8433 112.39 28.07C112.574 31.29 112.666 34.4027 112.666 37.408C112.666 38.9413 112.635 40.3827 112.574 41.732C112.513 43.0507 112.451 44.5073 112.39 46.102C112.359 46.838 112.283 47.4053 112.16 47.804C112.068 48.2027 111.93 48.5093 111.746 48.724C111.562 48.9387 111.347 49.0613 111.102 49.092C110.887 49.1533 110.627 49.184 110.32 49.184C109.768 49.184 109.308 49 108.94 48.632C108.572 48.2333 108.357 47.4053 108.296 46.148ZM110.366 16.8C111.071 16.8 111.715 17.076 112.298 17.628C112.911 18.18 113.218 18.8393 113.218 19.606C113.218 20.342 112.911 20.986 112.298 21.538C111.685 22.0593 110.995 22.32 110.228 22.32C109.584 22.32 108.971 22.0593 108.388 21.538C107.836 20.986 107.56 20.3113 107.56 19.514C107.56 18.778 107.836 18.1493 108.388 17.628C108.971 17.076 109.63 16.8 110.366 16.8ZM128.241 29.404C127.106 29.404 126.079 29.588 125.159 29.956C124.27 30.324 123.258 30.876 122.123 31.612C122.123 32.256 122.123 33.2067 122.123 34.464C122.123 35.6907 122.108 37.04 122.077 38.512C122.046 39.9533 122.016 41.3793 121.985 42.79C121.954 44.2007 121.893 45.3813 121.801 46.332C121.74 46.9453 121.663 47.436 121.571 47.804C121.51 48.1413 121.402 48.402 121.249 48.586C121.126 48.77 120.942 48.8927 120.697 48.954C120.482 48.9847 120.191 49 119.823 49C119.455 49 119.148 48.9847 118.903 48.954C118.688 48.8927 118.504 48.7853 118.351 48.632C118.198 48.448 118.075 48.1873 117.983 47.85C117.891 47.5127 117.814 47.0527 117.753 46.47C117.692 45.918 117.63 45.182 117.569 44.262C117.538 43.342 117.508 42.3453 117.477 41.272C117.446 40.168 117.416 39.064 117.385 37.96C117.385 36.8253 117.385 35.7827 117.385 34.832C117.385 33.268 117.4 31.9953 117.431 31.014C117.492 30.0327 117.584 29.1587 117.707 28.392C117.891 27.104 118.136 26.2913 118.443 25.954C118.75 25.6167 119.164 25.448 119.685 25.448C120.452 25.448 121.019 25.6627 121.387 26.092C121.786 26.5213 122.031 27.2267 122.123 28.208C123.258 27.2267 124.469 26.4447 125.757 25.862C127.076 25.2793 128.425 24.988 129.805 24.988C131.124 24.988 132.32 25.2947 133.393 25.908C134.497 26.5213 135.402 27.518 136.107 28.898C136.536 29.726 136.858 30.646 137.073 31.658C137.288 32.6393 137.441 33.682 137.533 34.786C137.564 35.2767 137.594 35.7673 137.625 36.258C137.656 36.718 137.671 37.224 137.671 37.776C137.702 38.2973 137.717 38.8953 137.717 39.57C137.717 40.2447 137.717 41.042 137.717 41.962C137.717 42.9433 137.702 43.8633 137.671 44.722C137.64 45.5807 137.548 46.332 137.395 46.976C137.272 47.5893 137.042 48.08 136.705 48.448C136.368 48.7853 135.908 48.954 135.325 48.954C133.914 48.954 133.178 48.2793 133.117 46.93C133.117 46.838 133.117 46.4547 133.117 45.78C133.117 45.0747 133.102 44.262 133.071 43.342C133.071 42.422 133.056 41.4867 133.025 40.536C133.025 39.5853 133.01 38.8033 132.979 38.19C132.948 37.6993 132.902 37.178 132.841 36.626C132.81 36.0433 132.749 35.4607 132.657 34.878C132.596 34.2953 132.504 33.7433 132.381 33.222C132.258 32.67 132.105 32.1793 131.921 31.75C131.492 30.738 130.955 30.094 130.311 29.818C129.667 29.542 128.977 29.404 128.241 29.404ZM153.294 31.612C153.478 31.2133 153.739 30.922 154.076 30.738C154.444 30.5233 154.843 30.416 155.272 30.416C155.64 30.416 155.993 30.508 156.33 30.692C156.698 30.876 156.99 31.1673 157.204 31.566C158.094 33.222 158.891 34.9087 159.596 36.626C160.332 38.3127 161.114 40.03 161.942 41.778C162.709 39.294 163.384 36.902 163.966 34.602C164.549 32.2713 165.147 29.9867 165.76 27.748C165.975 26.9507 166.266 26.4293 166.634 26.184C167.002 25.908 167.478 25.77 168.06 25.77C168.582 25.77 169.011 25.9233 169.348 26.23C169.686 26.506 169.854 26.8893 169.854 27.38C169.854 27.7787 169.747 28.484 169.532 29.496C169.348 30.4773 169.088 31.6273 168.75 32.946C168.444 34.234 168.091 35.614 167.692 37.086C167.324 38.558 166.941 39.9687 166.542 41.318C166.174 42.6673 165.822 43.894 165.484 44.998C165.147 46.102 164.886 46.93 164.702 47.482C164.457 48.1873 164.166 48.7087 163.828 49.046C163.491 49.414 162.97 49.598 162.264 49.598C161.62 49.598 161.084 49.3527 160.654 48.862C160.225 48.3407 159.826 47.7273 159.458 47.022C159.336 46.7767 159.136 46.3627 158.86 45.78C158.584 45.1973 158.247 44.5073 157.848 43.71C157.48 42.9127 157.066 42.0387 156.606 41.088C156.177 40.1373 155.732 39.1713 155.272 38.19C154.812 39.1713 154.337 40.1373 153.846 41.088C153.386 42.0387 152.957 42.928 152.558 43.756C152.16 44.5533 151.807 45.2433 151.5 45.826C151.224 46.4087 151.025 46.8227 150.902 47.068C150.534 47.7733 150.136 48.3867 149.706 48.908C149.308 49.3987 148.771 49.644 148.096 49.644C147.023 49.644 146.21 48.9387 145.658 47.528C145.444 46.976 145.168 46.1633 144.83 45.09C144.493 43.986 144.14 42.7593 143.772 41.41C143.404 40.0607 143.036 38.6653 142.668 37.224C142.3 35.752 141.963 34.372 141.656 33.084C141.38 31.796 141.15 30.6613 140.966 29.68C140.782 28.6987 140.69 27.9933 140.69 27.564C140.69 27.0427 140.828 26.6133 141.104 26.276C141.411 25.9387 141.84 25.77 142.392 25.77C143.006 25.77 143.496 25.908 143.864 26.184C144.263 26.4293 144.57 26.9507 144.784 27.748C145.398 29.9867 145.996 32.2713 146.578 34.602C147.161 36.902 147.836 39.294 148.602 41.778C149.277 40.306 149.952 38.7727 150.626 37.178C151.301 35.5833 152.19 33.728 153.294 31.612ZM184.304 30.094C183.169 30.094 182.142 30.2627 181.222 30.6C180.333 30.9373 179.321 31.3973 178.186 31.98C178.186 32.0107 178.186 32.302 178.186 32.854C178.186 33.406 178.171 34.1113 178.14 34.97C178.14 35.8287 178.125 36.7947 178.094 37.868C178.094 38.9107 178.079 39.9687 178.048 41.042C178.048 42.0847 178.017 43.0813 177.956 44.032C177.925 44.9827 177.895 45.78 177.864 46.424C177.803 47.068 177.726 47.574 177.634 47.942C177.573 48.31 177.481 48.586 177.358 48.77C177.266 48.9233 177.128 49.0153 176.944 49.046C176.76 49.0767 176.561 49.092 176.346 49.092C175.825 49.092 175.411 49.0613 175.104 49C174.828 48.9693 174.598 48.8773 174.414 48.724C174.23 48.54 174.092 48.2793 174 47.942C173.939 47.6047 173.877 47.1447 173.816 46.562C173.755 45.9793 173.693 45.182 173.632 44.17C173.601 43.1273 173.571 41.9773 173.54 40.72C173.509 39.432 173.479 38.0673 173.448 36.626C173.448 35.1847 173.448 33.7587 173.448 32.348C173.448 30.9373 173.448 29.45 173.448 27.886C173.479 26.2913 173.509 24.7733 173.54 23.332C173.571 21.86 173.601 20.5567 173.632 19.422C173.663 18.2567 173.709 17.398 173.77 16.846C173.831 16.0487 173.969 15.3587 174.184 14.776C174.429 14.1933 174.951 13.902 175.748 13.902C176.361 13.902 176.852 14.1167 177.22 14.546C177.619 14.9753 177.849 15.788 177.91 16.984C177.971 18.0573 178.017 19.56 178.048 21.492C178.109 23.3933 178.155 25.54 178.186 27.932C178.615 27.5947 179.137 27.288 179.75 27.012C180.363 26.7053 181.007 26.46 181.682 26.276C182.357 26.0613 183.047 25.8927 183.752 25.77C184.457 25.6473 185.117 25.586 185.73 25.586C187.202 25.586 188.475 25.9387 189.548 26.644C190.652 27.3187 191.526 28.3 192.17 29.588C192.599 30.416 192.921 31.336 193.136 32.348C193.351 33.3293 193.504 34.372 193.596 35.476C193.627 35.9667 193.657 36.4573 193.688 36.948C193.719 37.408 193.734 37.914 193.734 38.466C193.765 38.9873 193.78 39.5853 193.78 40.26C193.78 40.9347 193.78 41.732 193.78 42.652C193.78 43.572 193.765 44.4307 193.734 45.228C193.703 45.9947 193.611 46.6693 193.458 47.252C193.335 47.804 193.121 48.2487 192.814 48.586C192.507 48.8927 192.078 49.046 191.526 49.046C190.729 49.046 190.131 48.8007 189.732 48.31C189.364 47.7887 189.18 47.1753 189.18 46.47C189.18 46.4393 189.18 46.1173 189.18 45.504C189.18 44.8907 189.165 44.1853 189.134 43.388C189.134 42.56 189.119 41.732 189.088 40.904C189.088 40.076 189.073 39.4013 189.042 38.88C189.011 38.3893 188.965 37.868 188.904 37.316C188.873 36.7333 188.812 36.1507 188.72 35.568C188.659 34.9853 188.567 34.4333 188.444 33.912C188.321 33.36 188.168 32.8693 187.984 32.44C187.555 31.428 187.018 30.784 186.374 30.508C185.73 30.232 185.04 30.094 184.304 30.094ZM208.762 40.536C207.688 40.536 206.554 40.4593 205.358 40.306C204.192 40.122 202.92 39.754 201.54 39.202C201.816 41.0727 202.582 42.4833 203.84 43.434C205.128 44.3847 206.968 44.86 209.36 44.86C210.218 44.86 210.985 44.814 211.66 44.722C212.365 44.5993 212.978 44.4767 213.5 44.354C214.021 44.2007 214.481 44.078 214.88 43.986C215.278 43.8633 215.646 43.802 215.984 43.802C216.413 43.802 216.827 43.94 217.226 44.216C217.624 44.4613 217.824 44.8907 217.824 45.504C217.824 46.2707 217.502 46.8993 216.858 47.39C216.244 47.8807 215.478 48.2793 214.558 48.586C213.668 48.862 212.718 49.046 211.706 49.138C210.694 49.2607 209.804 49.322 209.038 49.322C207.228 49.322 205.557 49.0767 204.024 48.586C202.521 48.0953 201.218 47.3593 200.114 46.378C199.01 45.366 198.151 44.124 197.538 42.652C196.924 41.18 196.618 39.4627 196.618 37.5C196.618 35.5987 196.909 33.912 197.492 32.44C198.105 30.968 198.933 29.726 199.976 28.714C201.018 27.702 202.245 26.9353 203.656 26.414C205.097 25.8927 206.646 25.632 208.302 25.632C209.59 25.632 210.832 25.8007 212.028 26.138C213.254 26.4753 214.328 26.9813 215.248 27.656C216.198 28.3307 216.95 29.1893 217.502 30.232C218.084 31.244 218.376 32.44 218.376 33.82C218.376 35.0467 218.146 36.0893 217.686 36.948C217.226 37.8067 216.566 38.4967 215.708 39.018C214.88 39.5393 213.868 39.9227 212.672 40.168C211.506 40.4133 210.203 40.536 208.762 40.536ZM208.44 29.864C207.612 29.864 206.814 29.9713 206.048 30.186C205.281 30.37 204.576 30.692 203.932 31.152C203.318 31.5813 202.797 32.164 202.368 32.9C201.938 33.6053 201.647 34.4947 201.494 35.568C202.659 36.0893 203.794 36.4573 204.898 36.672C206.002 36.856 207.167 36.948 208.394 36.948C210.203 36.948 211.537 36.7333 212.396 36.304C213.285 35.844 213.73 35.0313 213.73 33.866C213.73 32.7927 213.316 31.8573 212.488 31.06C211.69 30.2627 210.341 29.864 208.44 29.864ZM232.459 40.536C231.386 40.536 230.251 40.4593 229.055 40.306C227.89 40.122 226.617 39.754 225.237 39.202C225.513 41.0727 226.28 42.4833 227.537 43.434C228.825 44.3847 230.665 44.86 233.057 44.86C233.916 44.86 234.682 44.814 235.357 44.722C236.062 44.5993 236.676 44.4767 237.197 44.354C237.718 44.2007 238.178 44.078 238.577 43.986C238.976 43.8633 239.344 43.802 239.681 43.802C240.11 43.802 240.524 43.94 240.923 44.216C241.322 44.4613 241.521 44.8907 241.521 45.504C241.521 46.2707 241.199 46.8993 240.555 47.39C239.942 47.8807 239.175 48.2793 238.255 48.586C237.366 48.862 236.415 49.046 235.403 49.138C234.391 49.2607 233.502 49.322 232.735 49.322C230.926 49.322 229.254 49.0767 227.721 48.586C226.218 48.0953 224.915 47.3593 223.811 46.378C222.707 45.366 221.848 44.124 221.235 42.652C220.622 41.18 220.315 39.4627 220.315 37.5C220.315 35.5987 220.606 33.912 221.189 32.44C221.802 30.968 222.63 29.726 223.673 28.714C224.716 27.702 225.942 26.9353 227.353 26.414C228.794 25.8927 230.343 25.632 231.999 25.632C233.287 25.632 234.529 25.8007 235.725 26.138C236.952 26.4753 238.025 26.9813 238.945 27.656C239.896 28.3307 240.647 29.1893 241.199 30.232C241.782 31.244 242.073 32.44 242.073 33.82C242.073 35.0467 241.843 36.0893 241.383 36.948C240.923 37.8067 240.264 38.4967 239.405 39.018C238.577 39.5393 237.565 39.9227 236.369 40.168C235.204 40.4133 233.9 40.536 232.459 40.536ZM232.137 29.864C231.309 29.864 230.512 29.9713 229.745 30.186C228.978 30.37 228.273 30.692 227.629 31.152C227.016 31.5813 226.494 32.164 226.065 32.9C225.636 33.6053 225.344 34.4947 225.191 35.568C226.356 36.0893 227.491 36.4573 228.595 36.672C229.699 36.856 230.864 36.948 232.091 36.948C233.9 36.948 235.234 36.7333 236.093 36.304C236.982 35.844 237.427 35.0313 237.427 33.866C237.427 32.7927 237.013 31.8573 236.185 31.06C235.388 30.2627 234.038 29.864 232.137 29.864ZM245.806 46.332C245.775 45.228 245.745 43.94 245.714 42.468C245.683 40.996 245.653 39.4013 245.622 37.684C245.622 35.9667 245.607 34.1573 245.576 32.256C245.576 30.3547 245.576 28.4073 245.576 26.414C245.576 24.2367 245.591 22.366 245.622 20.802C245.653 19.238 245.729 17.95 245.852 16.938C246.005 15.926 246.235 15.19 246.542 14.73C246.849 14.2393 247.278 13.994 247.83 13.994C248.351 13.994 248.811 14.1627 249.21 14.5C249.609 14.8373 249.839 15.6193 249.9 16.846C250.023 19.054 250.099 21.354 250.13 23.746C250.161 26.1073 250.176 28.438 250.176 30.738C250.176 32.118 250.176 33.452 250.176 34.74C250.176 35.9973 250.161 37.2547 250.13 38.512C250.099 39.7387 250.069 40.996 250.038 42.284C250.007 43.572 249.961 44.906 249.9 46.286C249.869 47.022 249.793 47.5893 249.67 47.988C249.578 48.3867 249.44 48.6933 249.256 48.908C249.072 49.1227 248.857 49.2453 248.612 49.276C248.397 49.3373 248.137 49.368 247.83 49.368C247.278 49.368 246.818 49.184 246.45 48.816C246.082 48.4173 245.867 47.5893 245.806 46.332Z" fill="#F6F9F8"/>
<path d="M265.385 25.54C266.275 25.54 267.164 25.6167 268.053 25.77C268.973 25.9233 269.801 26.138 270.537 26.414C271.273 26.69 271.871 27.0273 272.331 27.426C272.791 27.8247 273.021 28.2847 273.021 28.806C273.021 30.1553 272.255 30.83 270.721 30.83C270.353 30.83 270.001 30.784 269.663 30.692C269.357 30.5693 268.989 30.462 268.559 30.37C268.13 30.2473 267.593 30.14 266.949 30.048C266.305 29.9253 265.508 29.864 264.557 29.864C262.533 29.864 260.969 30.554 259.865 31.934C258.761 33.314 258.209 35.108 258.209 37.316C258.209 39.7387 258.761 41.686 259.865 43.158C261 44.63 262.595 45.366 264.649 45.366C265.937 45.366 266.98 45.2587 267.777 45.044C268.575 44.8293 269.219 44.584 269.709 44.308C270.231 44.032 270.645 43.7867 270.951 43.572C271.289 43.3573 271.657 43.25 272.055 43.25C272.607 43.25 273.037 43.3727 273.343 43.618C273.681 43.8327 273.849 44.2927 273.849 44.998C273.849 45.734 273.558 46.378 272.975 46.93C272.423 47.482 271.718 47.942 270.859 48.31C270.001 48.678 269.065 48.954 268.053 49.138C267.072 49.322 266.167 49.414 265.339 49.414C261.629 49.414 258.715 48.3867 256.599 46.332C254.483 44.2773 253.425 41.364 253.425 37.592C253.425 35.9667 253.671 34.4333 254.161 32.992C254.683 31.52 255.449 30.232 256.461 29.128C257.473 28.024 258.715 27.15 260.187 26.506C261.69 25.862 263.423 25.54 265.385 25.54ZM284.938 24.988C285.582 24.988 286.395 25.0493 287.376 25.172C288.358 25.264 289.293 25.4633 290.182 25.77C291.072 26.046 291.838 26.4447 292.482 26.966C293.126 27.4873 293.448 28.1467 293.448 28.944C293.448 29.404 293.31 29.8027 293.034 30.14C292.789 30.4773 292.39 30.646 291.838 30.646C291.44 30.646 290.98 30.5847 290.458 30.462C289.968 30.3393 289.416 30.2013 288.802 30.048C288.22 29.864 287.576 29.7107 286.87 29.588C286.196 29.4653 285.475 29.404 284.708 29.404C283.42 29.404 282.362 29.6033 281.534 30.002C280.737 30.4007 280.338 31.0293 280.338 31.888C280.338 32.3787 280.476 32.7927 280.752 33.13C281.059 33.4673 281.458 33.774 281.948 34.05C282.47 34.2953 283.068 34.51 283.742 34.694C284.448 34.878 285.184 35.062 285.95 35.246C286.901 35.4913 287.836 35.7673 288.756 36.074C289.707 36.3807 290.55 36.81 291.286 37.362C292.022 37.8833 292.62 38.558 293.08 39.386C293.54 40.1833 293.77 41.18 293.77 42.376C293.77 44.6453 292.912 46.4547 291.194 47.804C289.477 49.1227 286.947 49.782 283.604 49.782C282.868 49.782 281.994 49.7207 280.982 49.598C279.97 49.506 279.02 49.3067 278.13 49C277.241 48.724 276.474 48.3253 275.83 47.804C275.217 47.252 274.91 46.5313 274.91 45.642C274.91 45.0287 275.048 44.5687 275.324 44.262C275.631 43.9247 275.999 43.756 276.428 43.756C276.766 43.756 277.118 43.8633 277.486 44.078C277.854 44.2927 278.299 44.5227 278.82 44.768C279.342 45.0133 279.97 45.2433 280.706 45.458C281.442 45.6727 282.347 45.78 283.42 45.78C283.819 45.78 284.34 45.7647 284.984 45.734C285.628 45.6727 286.257 45.5347 286.87 45.32C287.514 45.1053 288.051 44.814 288.48 44.446C288.94 44.0473 289.17 43.4953 289.17 42.79C289.17 42.238 289.017 41.778 288.71 41.41C288.404 41.0113 287.99 40.674 287.468 40.398C286.947 40.122 286.334 39.892 285.628 39.708C284.954 39.4933 284.233 39.2787 283.466 39.064C282.577 38.8187 281.672 38.5427 280.752 38.236C279.863 37.9293 279.05 37.5307 278.314 37.04C277.578 36.5493 276.98 35.936 276.52 35.2C276.06 34.4333 275.83 33.498 275.83 32.394C275.83 31.3513 276.045 30.3853 276.474 29.496C276.904 28.576 277.517 27.7787 278.314 27.104C279.112 26.4293 280.062 25.908 281.166 25.54C282.301 25.172 283.558 24.988 284.938 24.988ZM305.177 24.988C305.821 24.988 306.633 25.0493 307.615 25.172C308.596 25.264 309.531 25.4633 310.421 25.77C311.31 26.046 312.077 26.4447 312.721 26.966C313.365 27.4873 313.687 28.1467 313.687 28.944C313.687 29.404 313.549 29.8027 313.273 30.14C313.027 30.4773 312.629 30.646 312.077 30.646C311.678 30.646 311.218 30.5847 310.697 30.462C310.206 30.3393 309.654 30.2013 309.041 30.048C308.458 29.864 307.814 29.7107 307.109 29.588C306.434 29.4653 305.713 29.404 304.947 29.404C303.659 29.404 302.601 29.6033 301.773 30.002C300.975 30.4007 300.577 31.0293 300.577 31.888C300.577 32.3787 300.715 32.7927 300.991 33.13C301.297 33.4673 301.696 33.774 302.187 34.05C302.708 34.2953 303.306 34.51 303.981 34.694C304.686 34.878 305.422 35.062 306.189 35.246C307.139 35.4913 308.075 35.7673 308.995 36.074C309.945 36.3807 310.789 36.81 311.525 37.362C312.261 37.8833 312.859 38.558 313.319 39.386C313.779 40.1833 314.009 41.18 314.009 42.376C314.009 44.6453 313.15 46.4547 311.433 47.804C309.715 49.1227 307.185 49.782 303.843 49.782C303.107 49.782 302.233 49.7207 301.221 49.598C300.209 49.506 299.258 49.3067 298.369 49C297.479 48.724 296.713 48.3253 296.069 47.804C295.455 47.252 295.149 46.5313 295.149 45.642C295.149 45.0287 295.287 44.5687 295.563 44.262C295.869 43.9247 296.237 43.756 296.667 43.756C297.004 43.756 297.357 43.8633 297.725 44.078C298.093 44.2927 298.537 44.5227 299.059 44.768C299.58 45.0133 300.209 45.2433 300.945 45.458C301.681 45.6727 302.585 45.78 303.659 45.78C304.057 45.78 304.579 45.7647 305.223 45.734C305.867 45.6727 306.495 45.5347 307.109 45.32C307.753 45.1053 308.289 44.814 308.719 44.446C309.179 44.0473 309.409 43.4953 309.409 42.79C309.409 42.238 309.255 41.778 308.949 41.41C308.642 41.0113 308.228 40.674 307.707 40.398C307.185 40.122 306.572 39.892 305.867 39.708C305.192 39.4933 304.471 39.2787 303.705 39.064C302.815 38.8187 301.911 38.5427 300.991 38.236C300.101 37.9293 299.289 37.5307 298.553 37.04C297.817 36.5493 297.219 35.936 296.759 35.2C296.299 34.4333 296.069 33.498 296.069 32.394C296.069 31.3513 296.283 30.3853 296.713 29.496C297.142 28.576 297.755 27.7787 298.553 27.104C299.35 26.4293 300.301 25.908 301.405 25.54C302.539 25.172 303.797 24.988 305.177 24.988Z" fill="#6D9886"/>
<defs>
<clipPath id="clip0_9_150">
<rect width="75" height="75" fill="white"/>
</clipPath>
</defs>
</svg>
