<svg width="371" height="96" viewBox="0 0 371 96" fill="none" xmlns="http://www.w3.org/2000/svg">
<g clip-path="url(#clip0_3_131)">
<path fill-rule="evenodd" clip-rule="evenodd" d="M31.4908 11H9.13859L20.3147 22.1758L31.4908 11ZM0 52.8599V82.0395L23.7416 83.8349C26.824 84.0686 29.6616 82.8238 31.5591 80.6853C31.6044 80.6225 31.6504 80.56 31.7011 80.5003C32.7569 79.2546 33.463 77.7739 33.7713 76.1813C33.7795 76.1394 33.7872 76.0975 33.7948 76.0552C33.8326 75.8455 33.865 75.635 33.8889 75.4218C33.8891 75.4212 33.8891 75.4206 33.8891 75.42V75.4199L35.3055 62.6694C31.9106 62.2825 28.7524 60.7453 26.352 58.3596L18.1385 66.5735L18.1372 66.5748L11.7386 72.9735C10.5161 74.1953 8.53547 74.1953 7.31322 72.9735C6.09141 71.7512 6.09141 69.77 7.31322 68.5481L11.5007 64.3606L0 52.8599ZM40.861 86H66.5108L53.6862 73.1748L40.861 86ZM75 43.2762L62.6058 30.8817L68.3103 25.1772C69.5322 23.9553 69.5322 21.9741 68.3103 20.7523C67.0885 19.5304 65.1079 19.5304 63.885 20.7523L56.6433 27.994C56.3573 28.1411 56.0927 28.3306 55.8611 28.5622L47.537 36.8863C45.1499 34.5609 42.0361 33.0621 38.6915 32.6812L39.9932 20.96L40.1077 19.9301C40.1316 19.7161 40.1644 19.5042 40.2022 19.2939C40.2098 19.2522 40.2173 19.211 40.2254 19.1697C40.5337 17.5762 41.2401 16.0949 42.2961 14.8492C42.3496 14.7863 42.3981 14.7205 42.4456 14.6546C44.3425 12.5218 47.176 11.2813 50.2552 11.5147L75 13.3867V43.2762ZM9.25347 44.5654L22.0061 45.9825C22.3926 42.5872 23.9298 39.4281 26.3165 37.0279L18.1024 28.814C18.1018 28.8135 18.1013 28.8129 18.1008 28.8123L18.0998 28.8112L2.44832 13.1601L0.839149 34.4178C0.6054 37.504 1.85493 40.3466 4.00056 42.2449C4.05943 42.2877 4.11787 42.3306 4.17415 42.3781C5.41938 43.4337 6.9003 44.1394 8.49271 44.4477C8.53439 44.4557 8.57607 44.4634 8.61796 44.4709C8.8283 44.5087 9.0397 44.5416 9.25347 44.5654ZM71.5517 82.1905L73.1591 60.9309C73.5465 55.8086 69.851 51.3515 64.7448 50.7845L51.995 49.3668C51.6089 52.7623 50.0717 55.922 47.6854 58.3231L55.8993 66.5372L55.8999 66.5379L71.5517 82.1905ZM45.0276 43.7793C44.8873 43.6221 44.7601 43.4523 44.6527 43.2667C43.076 40.538 40.1438 38.8427 37.0011 38.8429C36.5531 38.8429 36.1026 38.877 35.6626 38.9436C35.6611 38.9439 35.6596 38.944 35.6582 38.9441L35.6559 38.9443L35.6519 38.9452C34.5755 39.1097 33.5471 39.4724 32.5942 40.0224L32.5929 40.0232C29.8636 41.6002 28.168 44.5324 28.168 47.6757C28.168 48.1228 28.2018 48.5736 28.2688 49.0151C28.4331 50.0949 28.796 51.1272 29.3479 52.083L29.3482 52.0837C30.9249 54.813 33.8571 56.5083 37.0006 56.5083C37.4471 56.5083 37.897 56.4744 38.3376 56.4078H38.3383C39.4185 56.2441 40.4517 55.8808 41.4088 55.328L41.409 55.3278C44.1379 53.7506 45.8333 50.8187 45.8333 47.6755C45.8333 47.2274 45.7995 46.7762 45.7325 46.3347C45.7125 46.2017 45.7033 46.0685 45.7001 45.9355C45.5705 45.1896 45.3445 44.4681 45.0276 43.7793Z" fill="#6D9886"/>
<path d="M16 60L6.5 50.5L22.5 52.5L23 53L16 60Z" fill="#B8CDC5"/>
<path d="M25 26.5L34.5 17L32.5 33L32 33.5L25 26.5Z" fill="#B8CDC5"/>
<path d="M58.1608 35.285L67.6608 44.785L51.6608 42.785L51.1608 42.285L58.1608 35.285Z" fill="#B8CDC5"/>
<path d="M49.5 69L40 78.5L42 62.5L42.5 62L49.5 69Z" fill="#B8CDC5"/>
</g>
<path d="M91.0625 66V62H96.625C99.2917 62 101.167 61 102.25 59C102.667 58.2917 102.875 57.5625 102.875 56.8125V42.0625C102.875 40.6458 102.167 39.375 100.75 38.25C99.4583 37.2917 97.9375 36.8125 96.1875 36.8125H90.75V32.8125H96.1875C100.229 32.8125 103.312 34.3542 105.438 37.4375C106.479 38.9792 107 40.4583 107 41.875V57C107 59.0833 106.104 61.0417 104.312 62.875C102.229 64.9583 99.6458 66 96.5625 66H91.0625ZM83.5625 77.6875V32.8125H87.8125V77.6875H83.5625ZM112.125 28.375C112.125 27.25 112.667 26.4792 113.75 26.0625C114.083 25.9375 114.396 25.875 114.688 25.875C115.812 25.875 116.583 26.4167 117 27.5C117.083 27.7917 117.125 28.0833 117.125 28.375C117.125 29.5417 116.583 30.3125 115.5 30.6875C115.208 30.7708 114.938 30.8125 114.688 30.8125C113.521 30.8125 112.729 30.2917 112.312 29.25C112.188 28.9583 112.125 28.6667 112.125 28.375ZM112.625 66V33.3125H116.75V66H112.625ZM122.312 66V41.75C122.312 39.75 123.208 37.8125 125 35.9375C127.167 33.7708 129.833 32.6875 133 32.6875V36.8125C130.75 36.8125 128.938 37.6875 127.562 39.4375C126.854 40.3542 126.5 41.2917 126.5 42.25V66H122.312ZM135.688 36.8125V32.6875C139.521 32.6875 142.521 34.2292 144.688 37.3125C145.771 38.8958 146.312 40.375 146.312 41.75V66H142.125V42.25C142.125 40.9167 141.438 39.6458 140.062 38.4375C138.812 37.3542 137.354 36.8125 135.688 36.8125ZM149.25 32.8125L160.438 65.9375H162.625L163.938 62.125L153.875 32.8125H149.25ZM162.625 52.0625L164.625 57.8125H165.375L171.312 39.8125L180.125 65.9375H182.375L183.625 62.125L173.625 32.8125H168.938L162.625 52.0625ZM182.375 52.0625L184.312 57.8125H185.062L193.312 32.8125H188.688L182.375 52.0625ZM196.375 66.125V22.0625H200.375V36C202 34.25 204.167 33.3542 206.875 33.3125V37.1875C204.875 37.1875 203.146 38.0417 201.688 39.75C200.854 40.75 200.438 41.7292 200.438 42.6875V66.125H196.375ZM209.75 37.1875V33.3125C213.625 33.3125 216.5 34.6875 218.375 37.4375C219.375 38.8958 219.875 40.4583 219.875 42.125V66.125H215.875V42.6875C215.875 40.7292 215.042 39.2083 213.375 38.125C212.333 37.5 211.125 37.1875 209.75 37.1875ZM224.625 56.9375V41.75C224.667 39.8333 225.583 37.9583 227.375 36.125C229.458 33.9583 232.021 32.8542 235.062 32.8125V36.75C232.854 36.75 231.083 37.7292 229.75 39.6875C229.125 40.6042 228.812 41.4583 228.812 42.25V46.875H244.5V42.25C244.5 40.25 243.479 38.6875 241.438 37.5625C240.354 36.9375 239.229 36.625 238.062 36.625V32.8125C240.896 32.8125 243.438 33.8333 245.688 35.875C247.521 37.625 248.458 39.5625 248.5 41.6875V50.875H228.812V56.9375C228.812 58.1458 229.542 59.3542 231 60.5625C232.292 61.6042 233.667 62.125 235.125 62.125V66C231.417 66 228.479 64.4792 226.312 61.4375C225.188 59.8125 224.625 58.3125 224.625 56.9375ZM238.062 66V62C240.688 62 242.688 60.9167 244.062 58.75C244.479 58.125 244.75 57.5208 244.875 56.9375L248.562 58.3125C247.729 61.2708 245.938 63.4375 243.188 64.8125C241.604 65.6042 239.896 66 238.062 66ZM253.438 56.9375V41.75C253.479 39.8333 254.396 37.9583 256.188 36.125C258.271 33.9583 260.833 32.8542 263.875 32.8125V36.75C261.667 36.75 259.896 37.7292 258.562 39.6875C257.938 40.6042 257.625 41.4583 257.625 42.25V46.875H273.312V42.25C273.312 40.25 272.292 38.6875 270.25 37.5625C269.167 36.9375 268.042 36.625 266.875 36.625V32.8125C269.708 32.8125 272.25 33.8333 274.5 35.875C276.333 37.625 277.271 39.5625 277.312 41.6875V50.875H257.625V56.9375C257.625 58.1458 258.354 59.3542 259.812 60.5625C261.104 61.6042 262.479 62.125 263.938 62.125V66C260.229 66 257.292 64.4792 255.125 61.4375C254 59.8125 253.438 58.3125 253.438 56.9375ZM266.875 66V62C269.5 62 271.5 60.9167 272.875 58.75C273.292 58.125 273.562 57.5208 273.688 56.9375L277.375 58.3125C276.542 61.2708 274.75 63.4375 272 64.8125C270.417 65.6042 268.708 66 266.875 66ZM282.438 66V22.0625H286.75V66H282.438ZM291.812 56.9375C291.812 59.1042 292.646 61.0833 294.312 62.875C296.271 64.9583 298.875 66 302.125 66V62.0625C299.792 62.0625 298 61.125 296.75 59.25C296.25 58.4583 296 57.6875 296 56.9375V42.125C296 40.625 296.729 39.2917 298.188 38.125C299.354 37.2083 300.667 36.75 302.125 36.75V32.8125C298.208 32.8125 295.25 34.375 293.25 37.5C292.333 39 291.854 40.4792 291.812 41.9375V56.9375ZM304.938 36.8125C306.979 36.8125 308.521 37.6875 309.562 39.4375C310.062 40.2292 310.354 41.1458 310.438 42.1875C310.479 42.3958 310.5 42.8333 310.5 43.5L314.375 42.0625C314.375 39.0625 313.146 36.625 310.688 34.75C308.979 33.4583 307.062 32.8125 304.938 32.8125V36.8125ZM304.875 66.0625C307.792 66.1042 310.333 65 312.5 62.75C314.25 60.9167 315.125 58.9167 315.125 56.75L311.188 55.25V56.5C310.938 58.8333 309.771 60.5 307.688 61.5C306.771 61.9167 305.833 62.125 304.875 62.125V66.0625ZM318.062 57.25L322 56.5625C322 58.5625 323.062 60.1875 325.188 61.4375C326.312 62.0625 327.417 62.375 328.5 62.375V66.3125C324.667 66.3125 321.75 64.9167 319.75 62.125C318.625 60.5833 318.062 58.9583 318.062 57.25ZM318.375 42.3125C318.375 38.4792 320.083 35.6875 323.5 33.9375C325.125 33.1042 326.75 32.6875 328.375 32.6875V36.5625C326.417 36.5625 324.792 37.375 323.5 39C322.708 40.0417 322.312 41.1458 322.312 42.3125C322.312 43.7708 323.354 44.8958 325.438 45.6875C326.729 46.1875 329.979 47.0625 335.188 48.3125C338.396 49.0625 340.521 50.625 341.562 53C341.979 53.9583 342.188 54.9792 342.188 56.0625C342.188 59.8958 340.604 62.7708 337.438 64.6875C335.562 65.7708 333.458 66.3125 331.125 66.3125V62.4375C333.167 62.4375 334.938 61.6875 336.438 60.1875C337.562 59.0625 338.125 57.7292 338.125 56.1875C338.125 54.3542 336.417 52.9167 333 51.875C332.042 51.5833 330.479 51.1875 328.312 50.6875C326.562 50.2708 325.271 49.9583 324.438 49.75C321.271 48.625 319.354 46.9375 318.688 44.6875C318.479 43.9375 318.375 43.1458 318.375 42.3125ZM331.062 36.625V32.6875C334.604 32.6875 337.458 34.0208 339.625 36.6875C340.958 38.3542 341.625 40.0833 341.625 41.875L337.688 42.5C337.688 40.125 336.375 38.375 333.75 37.25C332.75 36.8333 331.854 36.625 331.062 36.625ZM344.688 57.25L348.625 56.5625C348.625 58.5625 349.688 60.1875 351.812 61.4375C352.938 62.0625 354.042 62.375 355.125 62.375V66.3125C351.292 66.3125 348.375 64.9167 346.375 62.125C345.25 60.5833 344.688 58.9583 344.688 57.25ZM345 42.3125C345 38.4792 346.708 35.6875 350.125 33.9375C351.75 33.1042 353.375 32.6875 355 32.6875V36.5625C353.042 36.5625 351.417 37.375 350.125 39C349.333 40.0417 348.938 41.1458 348.938 42.3125C348.938 43.7708 349.979 44.8958 352.062 45.6875C353.354 46.1875 356.604 47.0625 361.812 48.3125C365.021 49.0625 367.146 50.625 368.188 53C368.604 53.9583 368.812 54.9792 368.812 56.0625C368.812 59.8958 367.229 62.7708 364.062 64.6875C362.188 65.7708 360.083 66.3125 357.75 66.3125V62.4375C359.792 62.4375 361.562 61.6875 363.062 60.1875C364.188 59.0625 364.75 57.7292 364.75 56.1875C364.75 54.3542 363.042 52.9167 359.625 51.875C358.667 51.5833 357.104 51.1875 354.938 50.6875C353.188 50.2708 351.896 49.9583 351.062 49.75C347.896 48.625 345.979 46.9375 345.312 44.6875C345.104 43.9375 345 43.1458 345 42.3125ZM357.688 36.625V32.6875C361.229 32.6875 364.083 34.0208 366.25 36.6875C367.583 38.3542 368.25 40.0833 368.25 41.875L364.312 42.5C364.312 40.125 363 38.375 360.375 37.25C359.375 36.8333 358.479 36.625 357.688 36.625Z" fill="#212121"/>
<defs>
<clipPath id="clip0_3_131">
<rect width="75" height="75" fill="white" transform="translate(0 11)"/>
</clipPath>
</defs>
</svg>
